<?xml version="1.0" encoding="utf-8"?>
<!-- Generator: Adobe Illustrator 24.2.1, SVG Export Plug-In . SVG Version: 6.00 Build 0)  -->
<svg version="1.1" xmlns="http://www.w3.org/2000/svg" xmlns:xlink="http://www.w3.org/1999/xlink" x="0px" y="0px"
	 viewBox="0 0 382 432" style="enable-background:new 0 0 382 432;" xml:space="preserve">
<style type="text/css">
	.st0{fill-rule:evenodd;clip-rule:evenodd;fill:#FFFFFF;}
	.st1{fill-rule:evenodd;clip-rule:evenodd;fill:#010101;}
	.st2{fill-rule:evenodd;clip-rule:evenodd;fill:#D51F27;}
	.st3{fill:#FFFFFF;}
	.st4{fill-rule:evenodd;clip-rule:evenodd;fill:#211F1F;}
</style>
<g id="Layer_2">
</g>
<g id="Layer_1">
	<g>
		<g id="XMLID_5_">
			<g id="XMLID_6_">
				<path id="XMLID_35_" class="st0" d="M191,5.9c95.9,0,173.6,77.7,173.6,173.6c0,95.9-77.7,173.6-173.6,173.6
					c-95.9,0-173.6-77.7-173.6-173.6C17.4,83.6,95.1,5.9,191,5.9"/>
				<path id="XMLID_27_" class="st1" d="M191,11.7c92.6,0,167.7,75.1,167.7,167.7c0,92.6-75.1,167.7-167.7,167.7
					c-92.6,0-167.7-75.1-167.7-167.7C23.3,86.8,98.4,11.7,191,11.7"/>
				<path id="XMLID_26_" class="st2" d="M191,32.5c81.1,0,146.9,65.8,146.9,146.9c0,81.1-65.8,146.9-146.9,146.9
					c-81.1,0-146.9-65.8-146.9-146.9C44.1,98.3,109.9,32.5,191,32.5"/>
				<path id="XMLID_25_" class="st1" d="M237.4,319.1c-1.8-39.2,0-70.2,6.8-104.6c3.1,0,5.7,1.4,9,2.1c11,2.2,26.8-2.5,29.9-7.8
					c-1.4-0.4-2.8-1-4.2-1.8c1.8-1.2,4.4-2.3,6.1-3.5c-6.3-0.4-10.1-3.8-9.8-10c24.2-9.4,38-26.6,40.3-42.4
					c4.1-27.6-7.3-55.4-40.3-56.5c33.9,22.7,24.2,64.7-20.3,64.5c-17.8-13.3-37.1-18.5-58.3-11.7c-17.5-9.9-45.2-13.4-68.5-4
					c-7.5,0.7-15.3-2.4-20.5-4.8c-22.3-10.4-16.8-35,3.3-48.6c7.7-5.2,20.4-8.9,30.4-10.7c-86.3-11.3-102.3,93.8-30.1,102.2
					c-9.1,7.4-17.9,4.7-25.5,3.8c2.5,11.2,13,16.6,23.1,17.2C79,223.2,65,231.2,52.5,229.1C79.2,311.8,172,346.5,237.4,319.1"/>
				<path id="XMLID_24_" class="st2" d="M231.7,196.2c-2.6,2.7-5.4,5.7-8,8.4c0.4,6.2-4.7,8.3-9.3,5.9c-2.5,0.9-4.9,1.8-7.4,2.7
					C217.2,218.9,235,211.8,231.7,196.2"/>
				<path id="XMLID_23_" class="st2" d="M144.5,192.4c3.2,3.2,6.4,6.4,9.7,9.7c-2.1,8.4,6.8,7.8,7.9,6.1c2.6,0.7,5.3,1.4,7.9,2.1
					C157.9,217.4,144,209.3,144.5,192.4"/>
				<path id="XMLID_22_" class="st0" d="M173.4,254.1c2.5-2.1,5.6-2.7,9-1.9c4.2,0.4,8.5,0.4,12.6,0c3.8-1,7.1,0.1,9,1.9
					c4.6,4.2,5.1,8,5.4,10.9c-0.3,6-8.4,3.3-11.2,1.9c-6.6-2.6-13-2.6-19.1,0c-4.2,2.1-11.2,3.1-11.2-1.9
					C168.4,260.5,170.2,256.9,173.4,254.1z"/>
				<path id="XMLID_19_" class="st3" d="M205.1,269.2c-2.5,0-5.4-1.1-7-1.8c-6.3-2.5-12.7-2.5-18.8,0c-3.2,1.6-7.7,2.4-10,1
					c-1.1-0.7-1.6-1.8-1.6-3.3c0.4-4.6,2.2-8.3,5.5-11.2l0,0c2.5-2.1,5.7-2.8,9.3-2c4.2,0.4,8.4,0.4,12.5,0c3.5-0.9,6.9-0.2,9.3,2
					c4.5,4.1,5.2,7.8,5.5,11.2c-0.1,1.7-0.7,2.8-1.8,3.5C207.1,269,206.1,269.2,205.1,269.2z M188.6,264.7c3.2,0,6.5,0.7,9.8,2
					c1.7,0.9,6.7,2.7,9.2,1.2c0.9-0.5,1.4-1.5,1.5-2.8c-0.3-3.2-0.9-6.7-5.3-10.7c-2.2-2-5.4-2.7-8.7-1.8c-4.2,0.4-8.5,0.4-12.7,0
					c-3.5-0.8-6.4-0.2-8.8,1.8c-3.1,2.8-4.9,6.4-5.3,10.7c0,1.2,0.4,2.1,1.3,2.6c2.1,1.3,6.3,0.5,9.3-1
					C182.1,265.4,185.4,264.7,188.6,264.7z"/>
				<path id="XMLID_18_" class="st4" d="M175.2,255.8c2.1,3.4,3.3,3.6,5.4,4.2c2.7,1.4,1.3,4-1,3.8
					C177.4,263.5,173.7,260.9,175.2,255.8z"/>
				<path id="XMLID_15_" class="st3" d="M179.9,264.1c-0.1,0-0.2,0-0.3,0c-1.2-0.1-3-0.8-4.1-2.5c-0.8-1.1-1.5-3-0.7-5.9l0.2-0.8
					l0.4,0.7c2,3.1,3,3.4,5,3.9l0.3,0.1c1.6,0.8,1.9,2,1.7,2.8C182.1,263.4,181.1,264.1,179.9,264.1z M175.3,256.7
					c-0.3,1.7-0.1,3.2,0.8,4.5c1,1.4,2.5,2.1,3.6,2.2c1.1,0.1,1.8-0.5,2-1.1c0.2-0.7-0.3-1.4-1.2-2l-0.2,0
					C178.4,259.7,177.2,259.4,175.3,256.7z"/>
				<path id="XMLID_14_" class="st4" d="M202.4,255.8c-2.1,3.4-3.3,3.6-5.4,4.2c-2.7,1.4-1.3,4,1,3.8
					C200.3,263.5,204,260.9,202.4,255.8z"/>
				<path id="XMLID_11_" class="st3" d="M197.7,264.1c-1.2,0-2.2-0.7-2.5-1.7c-0.2-0.8,0.1-2,1.6-2.8l0.3-0.1c2-0.5,3-0.8,5-3.9
					l0.4-0.7l0.2,0.8c0.8,2.8,0.1,4.7-0.7,5.9c-1.2,1.7-3,2.4-4.1,2.5C197.9,264.1,197.8,264.1,197.7,264.1z M202.3,256.7
					c-1.8,2.7-3,3-4.9,3.6l-0.3,0.1c-0.9,0.5-1.4,1.2-1.2,1.9c0.2,0.6,0.9,1.2,2,1.1c1.1-0.1,2.6-0.8,3.6-2.2
					C202.4,259.9,202.6,258.4,202.3,256.7z"/>
				<path id="XMLID_10_" class="st0" d="M177.9,269.5c6.9-3.3,13.5-3.4,21.4-0.2c-0.3,2.1-1.1,2.8-2.5,3.3c-3.9,1.4-12.4,1.6-16.3,0
					C179.1,272.1,178.5,271,177.9,269.5z"/>
				<path id="XMLID_7_" class="st3" d="M188.3,274.1c-3,0-6-0.3-8-1.1c-1.6-0.6-2.2-1.9-2.8-3.3l-0.1-0.3l0.3-0.1
					c7.1-3.3,13.8-3.4,21.7-0.2l0.3,0.1l0,0.3c-0.4,2.3-1.2,3.1-2.7,3.6C194.9,273.7,191.6,274.1,188.3,274.1z M178.4,269.7
					c0.6,1.3,1.1,2.1,2.3,2.6c3.9,1.6,12.2,1.3,16,0c1.2-0.4,1.9-0.9,2.2-2.7C191.4,266.6,185.1,266.6,178.4,269.7z"/>
			</g>
		</g>
		<g>
			<path class="st3" d="M1.8,425.2v-33.3h16.6c3.1,0,5.6,0.9,7.3,2.8c1.7,1.9,2.6,4.5,2.6,8c0,3.4-0.9,6.1-2.6,8
				c-1.7,1.9-4.1,2.8-7.3,2.8h-8v11.7H1.8z M15.1,399.1h-4.7v7.2h4.7c1.4,0,2.4-0.3,2.9-0.8c0.5-0.5,0.8-1.5,0.8-2.8
				c0-1.3-0.3-2.3-0.8-2.8C17.5,399.4,16.5,399.1,15.1,399.1z"/>
			<path class="st3" d="M31.2,391.9h14.2c4.6,0,8.1,1.4,10.5,4.3c2.4,2.8,3.6,7,3.6,12.4c0,5.4-1.2,9.6-3.6,12.4
				c-2.4,2.8-5.9,4.2-10.5,4.2H31.2V391.9z M39.8,400.1v16.2H44c2.2,0,3.8-0.6,4.8-1.9c1-1.3,1.4-3.3,1.4-6.2c0-2.9-0.5-4.9-1.5-6.2
				c-1-1.3-2.6-1.9-4.8-1.9H39.8z"/>
			<path class="st3" d="M63.2,425.2v-33.3h8.6v33.3H63.2z"/>
			<path class="st3" d="M91.3,425.2v-33.3h16.6c3.1,0,5.6,0.9,7.3,2.8c1.7,1.9,2.6,4.5,2.6,8c0,3.4-0.9,6.1-2.6,8
				c-1.7,1.9-4.1,2.8-7.3,2.8h-8v11.7H91.3z M104.6,399.1h-4.7v7.2h4.7c1.4,0,2.4-0.3,2.9-0.8c0.5-0.5,0.8-1.5,0.8-2.8
				c0-1.3-0.3-2.3-0.8-2.8C106.9,399.4,106,399.1,104.6,399.1z"/>
			<path class="st3" d="M120.6,425.2v-33.3h23.5v8.2h-14.9v4h12.1v8.2h-12.1v4.4h15.6v8.6H120.6z"/>
			<path class="st3" d="M164.5,391.9c1.9,0,3.5,0.1,4.6,0.4c1.2,0.3,2.1,0.7,2.7,1.3c0.8,0.7,1.5,1.7,1.9,3c0.4,1.2,0.7,2.7,0.7,4.3
				c0,2-0.3,3.7-1,5.2c-0.6,1.5-1.5,2.6-2.7,3.2c1,0.6,1.7,1.4,2.1,2.3c0.4,0.9,0.6,2.5,0.7,4.8c0,0.3,0,0.6,0,1.1
				c0.1,4.4,0.5,6.8,1.2,7.2v0.5h-9.6c-0.3-0.7-0.5-2.1-0.5-4.1c0-1.2-0.1-2.1-0.1-2.7c-0.1-1.2-0.4-2.1-0.8-2.6
				c-0.5-0.5-1.2-0.7-2.3-0.7h-5.1v10.1h-8.7v-33.3H164.5z M156.3,406.3h5c1.3,0,2.2-0.2,2.8-0.7c0.5-0.5,0.8-1.2,0.8-2.3
				c0-1.1-0.3-1.8-0.8-2.3c-0.5-0.4-1.5-0.6-3-0.6h-4.8V406.3z"/>
			<path class="st3" d="M176.1,411h8.6v0.5c0,2,0.2,3.5,0.6,4.5c0.4,1,1.1,1.4,2,1.4c1,0,1.7-0.5,2.1-1.4c0.4-0.9,0.6-2.8,0.6-5.6
				v-18.5h8.6v17.1c0,3.9-0.1,6.6-0.3,8.2s-0.6,2.9-1.2,4c-0.8,1.6-2,2.8-3.6,3.6c-1.6,0.8-3.5,1.2-5.8,1.2c-4.2,0-7.2-1.1-9-3.2
				c-1.8-2.1-2.7-5.6-2.7-10.5V411z"/>
			<path class="st3" d="M211.6,391.9v16.3c0,3.3,0.3,5.7,1,7c0.7,1.3,1.8,1.9,3.5,1.9c1.7,0,2.8-0.6,3.5-1.9c0.7-1.3,1-3.6,1-7
				v-16.3h8.6v17.5c0,5.8-1,10-3.1,12.7s-5.4,4-10,4c-4.5,0-7.8-1.4-9.9-4.1c-2.1-2.7-3.2-6.9-3.2-12.7v-17.5H211.6z"/>
			<path class="st3" d="M230.2,425.2l9.6-33.3h10.9l9,33.3h-9.3l-0.7-3.3h-9.4l-0.8,3.3H230.2z M242.2,413.7h5.5L245,402
				L242.2,413.7z"/>
			<path class="st3" d="M261.2,425.2v-33.3h10.2l8.6,19.2v-19.2h8.3v33.3h-9.6l-9.3-19.5v19.5H261.2z"/>
			<path class="st3" d="M316.5,422.3c-1,1.3-2.3,2.3-3.8,2.9c-1.6,0.6-3.5,0.9-5.9,0.9c-4.9,0-8.7-1.5-11.2-4.4
				c-2.5-2.9-3.8-7.3-3.8-13.1c0-5.8,1.3-10.2,3.8-13.1c2.5-2.9,6.2-4.4,11.2-4.4c4.1,0,7.5,1.1,10,3.2c2.5,2.1,3.9,5.1,4.2,8.8
				h-9.4c-0.5-1.4-1.1-2.4-1.8-3c-0.8-0.7-1.7-1-2.7-1c-1.8,0-3.2,0.9-4.3,2.6c-1.1,1.7-1.6,4-1.6,7c0,2.9,0.5,5.2,1.6,6.9
				c1.1,1.6,2.6,2.4,4.5,2.4c1.4,0,2.6-0.4,3.6-1.2c0.9-0.8,1.5-1.8,1.7-3.2h-3.6v-7.2h12.4v18.9h-3.9L316.5,422.3z"/>
			<path class="st3" d="M322.1,425.2l9.6-33.3h10.9l9,33.3h-9.3l-0.7-3.3h-9.4l-0.8,3.3H322.1z M334.1,413.7h5.5L337,402
				L334.1,413.7z"/>
			<path class="st3" d="M353.1,425.2v-33.3h10.2l8.6,19.2v-19.2h8.3v33.3h-9.6l-9.3-19.5v19.5H353.1z"/>
		</g>
	</g>
</g>
</svg>
